<svg xmlns="http://www.w3.org/2000/svg" width="408" height="895" viewBox="0 0 408 895">
    <g fill="none" fill-rule="evenodd" stroke="#FFF">
        <ellipse cx="152.844" cy="612.275" rx="36.128" ry="36.011"/>
        <ellipse cx="258.117" cy="497.229" rx="36.128" ry="36.011"/>
        <ellipse cx="152.72" cy="497.229" rx="36.128" ry="36.011"/>
        <ellipse cx="258.117" cy="612.275" rx="36.128" ry="36.011"/>
        <path stroke-width="6" d="M373.39 338.67l-1.26 267.957 6.376 27.538s2.834 14.474 2.834 19.77v74.493l-19.835 92.146s-6.022 20.476-15.94 26.478c-9.917 6.001-108.739 42.719-108.739 42.719s-9.918 2.118-14.522 2.118h-20.367M204.443 3.536h31.878s18.772 2.118 21.606 2.824c2.834.706 78.633 37.423 78.633 37.423s8.854 6.002 13.105 10.239c4.25 4.236 20.898 32.48 20.898 32.48s6.73 12.71 7.084 21.182c.354 8.473 1.417 96.736 1.417 96.736l-4.604 27.184-.353 74.96"/>
        <path stroke-linecap="round" stroke-linejoin="round" stroke-width="2" d="M279.638 21.043l46.046 23.478s16.824 9.355 21.074 15.18c4.25 5.826 14.17 17.3 14.17 17.3s2.832 5.649 3.01 8.65c.177 3 0 18.357 0 18.357S351.718 77 343.926 71.881L297.347 37.46l-17.709-16.416z"/>
        <path stroke-width="2" d="M287.158 28.546s30.646 64.086 38.616 101.156c7.97 37.07 21.783 110.151 21.783 110.151l5.844-10.591s1.594-2.384 2.126-10.327c.53-7.944-5.845-138.306-11.69-146.603M346.832 246.099s-36.926-25.42-69.6-31.774c-32.676-6.355-58.71-8.209-72.789-8.209"/>
        <path stroke-width="2" d="M347.895 238.63l-2.834 76.08s.708 5.296-2.48 19.419c-3.187 14.122-9.563 58.252-9.563 58.252s-1.771 14.828-2.125 20.123c-.355 5.296-15.231 272.2-15.231 272.2l-4.25 81.908s0 17.299-2.834 25.42c-2.834 8.119-12.751 28.242-32.233 37.775-19.48 9.532-38.253 13.768-71.902 13.768"/>
        <path stroke-width="2" d="M204.443 373.683c15.23 0 57.026 4.237 71.195 8.12 14.167 3.883 56.643 17.3 56.548 18.15M204.443 403.695c9.917 0 46.985 3.177 63.871 7.061 16.887 3.883 44.04 10.212 61.632 17.992M346.952 246.132s8.918 30.45 9.063 36.099c.146 5.65 0 40.601 0 40.601s-2.769 0-4.499 8.826c-1.73 8.826-8.106 49.426-9.523 63.195-1.416 13.769-7.438 112.269-8.147 157.812-.708 45.543-1.571 302.129-1.571 302.129"/>
        <path stroke-width="2" d="M371.19 273.643s-13.752 2.119-16.085 7.414c-2.334 5.296 11.126 17.3 11.126 17.3l37.9 34.598s2.833 2.825 2.833 8.12v11.651l-33.807-13.763s-5.155-.712-5.51-4.596c-.353-3.883-1.416-9.532-1.416-9.532s.354-2.736-3.1-2.119c-3.453.619-6.843 2.648-8.026-1.059"/>
        <path stroke-width="2" d="M361.679 323.663v203.531s-3.704 62.137-6.103 84.38c-2.398 22.241-12.68 98.496-23.301 111.913"/>
        <path stroke-width="2" d="M378.483 663.799s-3.542 14.121-6.73 16.24c-3.187 2.118-6.73 2.118-8.147 0-1.416-2.119-15.939-12.71-16.292-16.24M307.21 421.202v266.177l9.71-.066s2.59-.33 4.384 1.39c1.793 1.721 11.556 8.54 11.556 8.54M204.443 688.941c3.188 0 111.772-.132 111.772-.132M372.226 478.725l-9.873 4.766"/>
        <path stroke-width="6" d="M34.431 338.67l1.26 267.957-6.376 27.538s-2.833 14.474-2.833 19.77v74.493l19.834 92.146s6.022 20.476 15.94 26.478c9.918 6.001 108.74 42.719 108.74 42.719s9.917 2.118 14.521 2.118h17.972M212.2 3.536h-40.468s-18.773 2.118-21.607 2.824c-2.833.706-78.632 37.423-78.632 37.423s-8.855 6.002-13.106 10.239c-4.25 4.236-20.898 32.48-20.898 32.48s-6.73 12.71-7.083 21.182c-.355 8.473-1.418 96.736-1.418 96.736l4.606 27.184.351 74.96"/>
        <path stroke-linecap="round" stroke-linejoin="round" stroke-width="2" d="M128.406 21.043L82.36 44.52S65.535 53.876 61.285 59.7c-4.25 5.826-14.168 17.3-14.168 17.3s-2.834 5.649-3.011 8.65c-.177 3 0 18.357 0 18.357S56.326 77 64.119 71.881l46.577-34.422 17.71-16.416z"/>
        <path stroke-width="2" d="M120.95 28.546s-29.143 62.822-37.113 99.892c-7.97 37.07-21.783 110.15-21.783 110.15l-5.844-10.591s-1.594-2.383-2.126-10.327c-.53-7.943 5.845-138.307 11.69-146.603M61.573 246.095s36.925-25.42 69.6-31.775c32.675-6.354 59.86-8.204 73.94-8.204"/>
        <path stroke-width="2" d="M61.573 238.63l2.833 76.08s-.708 5.296 2.48 19.419c3.188 14.122 9.563 58.252 9.563 58.252s1.77 14.828 2.126 20.123c.353 5.296 15.23 272.2 15.23 272.2l4.25 81.908s0 17.299 2.834 25.42c2.833 8.119 12.751 28.242 32.232 37.775 19.48 9.532 39.316 13.768 72.966 13.768"/>
        <path stroke-width="2" d="M205.417 373.683c-15.23 0-58.089 4.237-72.256 8.12-14.17 3.883-56.645 17.3-56.549 18.15M205.685 403.695c-9.918 0-48.048 3.177-64.934 7.061-16.886 3.883-44.04 10.212-61.633 17.992M63.181 246.132s-8.918 30.45-9.062 36.099c-.147 5.65 0 40.601 0 40.601s2.768 0 4.498 8.826c1.73 8.826 8.106 49.426 9.523 63.195 1.417 13.769 7.438 112.269 8.147 157.812.708 45.543 1.572 302.129 1.572 302.129"/>
        <path stroke-width="2" d="M37.192 273.643s13.75 2.119 16.085 7.414c2.333 5.296-11.126 17.3-11.126 17.3l-37.9 34.598s-2.834 2.825-2.834 8.12v11.651l33.807-13.763s5.155-.712 5.51-4.596c.354-3.883 1.417-9.532 1.417-9.532s-.355-2.736 3.098-2.119c3.454.619 6.845 2.648 8.028-1.059"/>
        <path stroke-width="2" d="M46.534 323.663v203.531s3.704 62.137 6.102 84.38c2.399 22.241 12.682 98.496 23.302 111.913"/>
        <path stroke-width="2" d="M28.988 663.799s3.543 14.121 6.73 16.24c3.189 2.118 6.73 2.118 8.147 0 1.417-2.119 15.939-12.71 16.294-16.24M102.26 421.202v266.177l-9.71-.066s-2.589-.33-4.382 1.39c-1.793 1.721-11.556 8.54-11.556 8.54M209.118 688.941c-3.188 0-114.96-.132-114.96-.132M36.508 478.725l9.873 4.766"/>
        <path stroke-linejoin="round" stroke-width="2" d="M138.544 514.494c-.54-1.49-1.978-4.601 1.054-4.557h12.099l.04-.314 3.283-17.031c.275-2.297 1.33-3.951 3.634-3.678 2.304.275 3.964.276 3.689 2.574l-5.101 27.562h-14.48c-2.513 0-3.65-2.985-4.218-4.556zM163.887 484.286V476.38H159.317c-2.223 0-4.043 1.815-4.043 4.032s1.82 4.03 4.043 4.03h4.57V476.38M243.739 514.494c-.54-1.49-1.978-4.601 1.054-4.557h12.099l.04-.314 3.283-17.031c.275-2.297 1.331-3.951 3.634-3.678 2.305.275 3.965.276 3.69 2.574l-5.102 27.562h-14.48c-2.513 0-3.65-2.985-4.218-4.556zM269.082 484.286V476.38H264.512c-2.223 0-4.043 1.815-4.043 4.032s1.82 4.03 4.043 4.03h4.57V476.38M243.739 628.072c-.54-1.49-1.978-4.601 1.054-4.557h12.099l.04-.314 3.283-17.031c.275-2.297 1.331-3.951 3.634-3.678 2.305.275 3.965.276 3.69 2.574l-5.102 27.562h-14.48c-2.513 0-3.65-2.985-4.218-4.556zM269.082 597.864V589.958H264.512c-2.223 0-4.043 1.815-4.043 4.032s1.82 4.03 4.043 4.03h4.57V589.959M138.278 628.072c-.54-1.49-1.978-4.601 1.054-4.557h12.099l.04-.314 3.283-17.031c.275-2.297 1.33-3.951 3.634-3.678 2.304.275 3.964.276 3.689 2.574l-5.101 27.562h-14.48c-2.513 0-3.65-2.985-4.218-4.556zM163.62 597.864V589.958h-4.569c-2.223 0-4.044 1.815-4.044 4.032s1.82 4.03 4.044 4.03h4.57V589.959"/>
    </g>
</svg>
