<svg xmlns="http://www.w3.org/2000/svg" width="80" height="80" viewBox="0 0 80 80">
    <path fill="#FFF" fill-rule="nonzero" d="M38.353 65.404a8.55 8.55 0 0 1-6.045-2.47L13.776 44.64C11.961 42.845 11 40.56 11 38.026c0-2.498.988-4.85 2.776-6.612l20.847-20.577-5.088-5.093A3.34 3.34 0 0 1 29.57.972a3.45 3.45 0 0 1 4.835.033l30.167 30.18c3.282 3.28 3.265 8.606-.038 11.873L44.395 62.933a8.536 8.536 0 0 1-6.042 2.471zM16.69 36.096a2.77 2.77 0 0 0-.846 2.013c0 .816.262 1.436.846 2.012l20.277 20.015a1.86 1.86 0 0 0 1.324.54c.288 0 .845-.07 1.32-.54l22.032-21.743a1.827 1.827 0 0 0 .007-2.585L39.466 13.614 16.69 36.096zM69.125 79H14.42C12.532 79 11 77.766 11 76.239c0-1.527 1.532-2.762 3.42-2.762h54.705c1.891 0 3.42 1.235 3.42 2.762s-1.529 2.76-3.42 2.76zM58.868 60.3c0-5.208 5.867-9.268 6.838-14.401.981 5.137 6.838 9.224 6.838 14.401 0 3.976-3.06 7.199-6.838 7.199s-6.838-3.223-6.838-7.199zm8.206-23.176L39.492 64.35 16.194 41.354c-1.183-1.171-1.775-4.23-1.775-4.23h52.655z"/>
</svg>
