<svg xmlns="http://www.w3.org/2000/svg" width="80" height="80" viewBox="0 0 80 80">
    <g fill="#FFF" fill-rule="nonzero" transform="translate(8 7)">
        <path d="M67.51 30.214c-.351-1.542-1.613-1.892-1.613-1.892l-5.749.63-5.187-12.197c-.49-1.402-2.173-3.646-5.608-3.996H47.81v4.346h1.192c1.332.14 1.753.911 1.753 1.052l5.117 12.057-43.744-.07 5.047-11.777.07-.14c.07-.14.421-.912 1.753-1.122h1.542V12.76h-1.822c-3.436.35-5.118 2.594-5.609 3.996L7.992 28.953l-5.538-.561s-1.262.35-1.613 1.893c-.35 1.542-.77 4.206 2.734 5.117l1.893.21C3.155 40.03.701 47.88 7.151 54.54c.14.14 1.752 1.402 2.593 1.613v3.855a2.663 2.663 0 0 0 2.664 2.664h3.505a2.663 2.663 0 0 0 2.664-2.664v-3.645h31.056v3.575a2.663 2.663 0 0 0 2.664 2.664h3.575a2.663 2.663 0 0 0 2.664-2.664v-3.856a4.881 4.881 0 0 0 2.454-1.612c6.59-6.59 4.486-14.441 2.243-18.998l1.612-.14c3.435-.911 3.015-3.505 2.664-5.118zM15.001 45.427a3.844 3.844 0 0 1-3.856-3.856 3.844 3.844 0 0 1 3.856-3.856 3.844 3.844 0 0 1 3.856 3.856 3.844 3.844 0 0 1-3.856 3.856zm37.575 0a3.844 3.844 0 0 1-3.855-3.856 3.844 3.844 0 0 1 3.855-3.856 3.844 3.844 0 0 1 3.856 3.856c.07 2.103-1.682 3.856-3.856 3.856z"/>
        <path d="M44.515 9.744h-1.752c-.21-1.051-.631-2.033-1.192-2.944l1.472-1.472c.07-.07.14-.21.14-.42 0-.211-.07-.281-.14-.421L41.08 2.524a.55.55 0 0 0-.77 0l-1.473 1.472a11.263 11.263 0 0 0-2.664-1.122V1.192c0-.28-.28-.561-.56-.561h-2.735c-.28 0-.56.28-.56.56v1.823c-.982.21-1.893.561-2.734 1.122L27.97 2.524a.55.55 0 0 0-.771 0l-1.963 1.963c-.07.07-.14.21-.14.42s.07.28.14.42L26.78 6.87c-.56.911-1.051 1.893-1.261 2.944h-1.753c-.28 0-.56.28-.56.561v2.734c0 .28.28.561.56.561h1.753c.21.982.56 1.893 1.121 2.664l-1.402 1.402c-.07.07-.14.21-.14.42 0 .211.07.281.14.421L27.2 20.54c.14.14.28.14.42.14.14 0 .281-.07.421-.14l1.332-1.332c.912.561 1.893 1.052 3.015 1.262v1.612c0 .28.28.561.56.561h2.734c.28 0 .561-.28.561-.56V20.47a7.08 7.08 0 0 0 2.875-1.262l1.121 1.122c.14.14.28.14.42.14.141 0 .281-.07.421-.14l1.963-1.963c.07-.07.14-.21.14-.42s-.07-.281-.14-.421l-1.191-1.192c.49-.841.91-1.753 1.121-2.734h1.753c.28 0 .56-.21.56-.56v-2.735c-.21-.28-.42-.56-.77-.56zM34.14 17.105a5.475 5.475 0 0 1-5.468-5.468A5.475 5.475 0 0 1 34.14 6.17a5.475 5.475 0 0 1 5.468 5.468 5.475 5.475 0 0 1-5.468 5.468z"/>
        <ellipse cx="34.14" cy="11.707" rx="2.874" ry="2.874"/>
    </g>
</svg>
