<svg xmlns="http://www.w3.org/2000/svg" width="80" height="80" viewBox="0 0 80 80">
    <g fill="none" fill-rule="evenodd">
        <path stroke="#FFF" stroke-linecap="round" stroke-linejoin="round" stroke-width="4" d="M46.295 8.347c-3.03 0-5.508 2.451-5.508 5.447 0-2.996-2.478-5.447-5.508-5.447-3.029 0-5.507 2.451-5.507 5.447 0 1.022.206 1.907.688 2.724l10.327 12.937 10.327-12.937c.482-.817.688-1.702.688-2.724 0-2.996-2.478-5.447-5.507-5.447z"/>
        <path fill="#FFF" fill-rule="nonzero" d="M74.51 36.526c-.351-1.527-1.613-1.874-1.613-1.874l-5.749.624L61.961 23.2c-.49-1.388-2.173-3.61-5.608-3.956H54.81v4.303h1.192c1.332.139 1.753.902 1.753 1.04l5.117 11.939-43.744-.07 5.047-11.66.07-.139c.07-.139.421-.902 1.753-1.11h1.542v-4.303h-1.822c-3.436.347-5.118 2.568-5.609 3.956l-5.117 12.076-5.538-.555s-1.262.347-1.613 1.874c-.35 1.527-.77 4.164 2.734 5.067l1.893.208c-2.313 4.372-4.767 12.146 1.683 18.74.14.138 1.752 1.387 2.593 1.595v3.818c0 1.457 1.192 2.637 2.664 2.637h3.505c1.473 0 2.664-1.18 2.664-2.637v-3.61h31.056v3.54c0 1.458 1.192 2.638 2.664 2.638h3.575c1.472 0 2.664-1.18 2.664-2.638v-3.817a4.885 4.885 0 0 0 2.454-1.596c6.59-6.524 4.486-14.298 2.243-18.81l1.612-.138c3.435-.902 3.015-3.47 2.664-5.066zm-52.508 15.06a3.825 3.825 0 0 1-3.856-3.817c0-2.151 1.753-3.817 3.856-3.817a3.825 3.825 0 0 1 3.856 3.817 3.825 3.825 0 0 1-3.856 3.817zm37.575 0a3.825 3.825 0 0 1-3.855-3.817c0-2.151 1.752-3.817 3.855-3.817a3.825 3.825 0 0 1 3.856 3.817c.07 2.082-1.682 3.817-3.856 3.817z"/>
    </g>
</svg>
