<?xml version="1.0" encoding="UTF-8"?>
<svg width="390px" height="157px" viewBox="0 0 390 157" version="1.1" xmlns="http://www.w3.org/2000/svg" xmlns:xlink="http://www.w3.org/1999/xlink">
    <!-- Generator: Sketch 42 (36781) - http://www.bohemiancoding.com/sketch -->
    <title>Page 1</title>
    <desc>Created with Sketch.</desc>
    <defs>
        <polygon id="path-1" points="44.5288809 35.5069586 44.5288809 0.952631034 0.136286703 0.952631034 0.136286703 35.5069586 44.5288809 35.5069586"></polygon>
        <polygon id="path-3" points="1.44746852e-15 35.507231 1.44746852e-15 0.95017931 50.5656459 0.95017931 50.5656459 35.507231 0 35.507231"></polygon>
        <polygon id="path-5" points="0.890740495 22.1018391 34.4915499 22.1018391 34.4915499 0.180973563 0.890740495 0.180973563"></polygon>
    </defs>
    <g id="Page-1" stroke="none" stroke-width="1" fill="none" fill-rule="evenodd">
        <g id="大屏版二切图" transform="translate(-1874.000000, -262.000000)">
            <g id="t_logo" transform="translate(1874.000000, 262.000000)">
                <polygon id="Fill-1" fill="#FEFEFE" points="219.287412 101.487926 182.302525 101.487926 185.109864 93.7840638 222.096114 93.7840638"></polygon>
                <polygon id="Fill-2" fill="#FEFEFE" points="214.800305 113.802391 187.12913 113.802391 189.936469 106.101253 217.609007 106.101253"></polygon>
                <polygon id="Fill-3" fill="#FEFEFE" points="175.081841 128.162684 183.630659 104.695598 194.442801 99.7935121 184.10923 128.162684"></polygon>
                <g id="Group-69" transform="translate(0.000000, 0.035172)">
                    <path d="M268.282366,93.7484828 L265.473663,101.452345 L292.449479,101.452345 C294.599637,101.452345 294.789156,102.676845 294.321493,103.961276 C293.852467,105.245707 293.281182,106.180086 292.228601,106.180086 L275.867226,106.180086 L273.103517,113.76681 L295.890822,113.76681 C298.695434,113.76681 300.290668,112.602241 301.396424,109.56619 C302.500817,106.5315 303.775641,103.026897 304.88276,99.9922069 C305.988517,96.9561552 304.353743,93.7484828 299.795736,93.7484828 L268.282366,93.7484828 Z" id="Fill-4" fill="#FEFEFE"></path>
                    <polygon id="Fill-6" fill="#FEFEFE" points="259.655558 128.127512 268.20574 104.660426 279.016518 99.7583397 268.681583 128.127512"></polygon>
                    <polygon id="Fill-8" fill="#FEFEFE" points="287.46785 128.127512 281.922707 108.564116 291.008724 108.564116 296.495238 128.127512"></polygon>
                    <path d="M164.199618,118.119438 C163.764678,119.311248 162.43259,120.287852 161.235483,120.287852 L147.771435,120.287852 C145.384038,120.287852 144.140573,118.334645 145.010453,115.9483 L149.516648,103.57799 C149.950225,102.386179 151.282313,101.4123 152.478057,101.4123 L165.942105,101.4123 C168.332229,101.4123 169.57433,103.362783 168.70445,105.749128 L164.199618,118.119438 Z M173.488789,93.5735931 L148.840378,93.5735931 C146.654771,93.5735931 144.214199,95.3579034 143.419309,97.5453862 L135.169086,120.187059 C133.577943,124.55249 135.852174,128.127921 140.224751,128.127921 L164.874525,128.127921 C167.061495,128.127921 169.503431,126.339524 170.296957,124.158852 L178.545817,101.514455 C180.13696,97.1463 177.864093,93.5735931 173.488789,93.5735931 L173.488789,93.5735931 Z" id="Fill-10" fill="#FEFEFE"></path>
                    <path d="M246.969221,118.119438 C246.532918,119.311248 245.202193,120.287852 244.005086,120.287852 L230.542401,120.287852 C228.152277,120.287852 226.908813,118.334645 227.778692,115.9483 L232.284888,103.57799 C232.719827,102.386179 234.051916,101.4123 235.24766,101.4123 L248.710344,101.4123 C251.101832,101.4123 252.345296,103.362783 251.474053,105.749128 L246.969221,118.119438 Z M256.258392,93.5735931 L231.608617,93.5735931 C229.423011,93.5735931 226.983802,95.3579034 226.187549,97.5453862 L217.937326,120.187059 C216.347545,124.55249 218.620413,128.127921 222.994354,128.127921 L247.644128,128.127921 C249.831098,128.127921 252.27167,126.339524 253.065197,124.158852 L261.314056,101.514455 C262.9052,97.1463 260.632332,93.5735931 256.258392,93.5735931 L256.258392,93.5735931 Z" id="Fill-12" fill="#FEFEFE"></path>
                    <polygon id="Fill-14" fill="#FEFEFE" points="382.104903 114.701053 352.0736 114.701053 354.880939 106.997191 384.913606 106.997191"></polygon>
                    <g id="Group-18" transform="translate(344.642772, 92.620690)">
                        <mask id="mask-2" fill="white">
                            <use xlink:href="#path-1"></use>
                        </mask>
                        <g id="Clip-17"></g>
                        <path d="M13.9772864,27.6668897 C11.5885257,27.6668897 10.3436978,25.7136828 11.214941,23.3273379 L15.7211362,10.9570276 C16.1560761,9.76521724 17.4881646,8.7927 18.682545,8.7927 L31.4185116,8.7927 C33.8072722,8.7927 35.0493732,10.7418207 34.1781301,13.1281655 L30.9303972,22.0538034 L39.2256141,22.0538034 L44.0208603,8.8934931 C45.6133674,4.52533793 43.3364094,0.952631034 38.9651955,0.952631034 L14.3154214,0.952631034 C12.1284511,0.952631034 9.68924281,2.73694138 8.89298926,4.92442414 L0.644129625,27.5660966 C-0.947014043,31.9315276 1.32721701,35.5069586 5.69979434,35.5069586 L34.3253824,35.5069586 L37.1804423,27.6668897 L13.9772864,27.6668897 Z" id="Fill-16" fill="#FEFEFE" mask="url(#mask-2)"></path>
                    </g>
                    <polygon id="Fill-19" fill="#FEFEFE" points="77.8536916 121.939633 88.1913534 93.5731845 97.2187417 93.5731845 86.8797165 121.939633"></polygon>
                    <path d="M61.5149504,115.948709 L67.4145893,99.7577948 L56.6010842,104.661243 L50.9455025,120.186105 C49.3543588,124.551536 51.6285898,128.126967 56.0011672,128.126967 L84.6267553,128.126967 L87.4831786,120.28826 L63.5478511,120.28826 C61.1590905,120.28826 60.6464341,118.335053 61.5149504,115.948709" id="Fill-21" fill="#FEFEFE"></path>
                    <polygon id="Fill-23" fill="#FEFEFE" points="53.2850427 101.569755 66.7559076 101.569755 69.6695958 93.5730483 56.1973673 93.5730483"></polygon>
                    <path d="M340.081667,120.287579 L316.149066,120.287579 C313.757579,120.287579 312.515478,118.334372 313.386721,115.948028 L317.89428,103.577717 C318.327856,102.385907 319.659945,101.41339 320.855689,101.41339 L346.961625,101.41339 L349.816685,93.5733207 L317.21801,93.5733207 C315.029676,93.5733207 312.590468,95.357631 311.794214,97.5451138 L303.545354,120.186786 C301.954211,124.552217 304.228442,128.127648 308.601019,128.127648 L337.226607,128.127648 L340.081667,120.287579 Z" id="Fill-25" fill="#FEFEFE"></path>
                    <polygon id="Fill-27" fill="#FEFEFE" points="136.890712 101.452753 99.9058248 101.452753 102.713164 93.7488914 139.699414 93.7488914"></polygon>
                    <polygon id="Fill-29" fill="#FEFEFE" points="104.166599 128.127512 112.716781 104.660426 123.528923 99.7583397 113.192624 128.127512"></polygon>
                    <g id="Group-33" transform="translate(0.000000, 92.620690)">
                        <mask id="mask-4" fill="white">
                            <use xlink:href="#path-3"></use>
                        </mask>
                        <g id="Clip-32"></g>
                        <path d="M17.1816247,13.1284379 L9.02820644,35.507231 L-0.000545379149,35.507231 L9.69765934,8.89376552 C11.2874396,4.52561034 16.165856,0.95017931 20.5397968,0.95017931 L50.5656459,0.95017931 L47.7119495,8.78888621 L22.3749977,8.78888621 C19.986237,8.78888621 18.050141,10.7420931 17.1816247,13.1284379" id="Fill-31" fill="#FEFEFE" mask="url(#mask-4)"></path>
                    </g>
                    <polygon id="Fill-34" fill="#FEFEFE" points="39.8235855 117.270869 17.1903508 117.270869 19.99769 109.567007 42.6322881 109.567007"></polygon>
                    <polygon id="Fill-36" fill="#FEFEFE" points="28.9492706 128.127512 37.4994522 104.660426 48.3129573 99.7583397 37.976659 128.127512"></polygon>
                    <path d="M288.154891,140.851688 L287.388633,142.947912 L290.414124,142.562447 L290.149615,143.291153 C289.92601,143.899998 289.102487,144.586481 287.845388,144.586481 L287.051862,146.752171 C287.051862,146.752171 293.562325,146.972826 294.786702,143.615326 L295.401617,141.929084 L297.472694,141.666205 L298.234861,139.569981 L296.16242,139.83286 L296.702346,138.356378 L298.679345,138.356378 L299.440149,136.265602 L297.464513,136.265602 L298.027617,134.716929 L293.273274,134.716929 L292.708807,136.265602 L289.822388,136.265602 L289.065674,138.356378 L291.94664,138.356378 L291.177655,140.468947 L288.154891,140.851688 Z" id="Fill-38" fill="#FEFEFE"></path>
                    <path d="M312.358681,143.291153 L314.931508,136.232912 L310.173074,136.232912 L310.164894,136.265602 L309.154579,136.265602 C309.556796,135.336671 309.755859,134.725102 309.755859,134.725102 L304.940162,134.716929 C304.742462,135.260395 304.542035,135.775257 304.337518,136.265602 L300.623486,136.265602 L299.861318,138.356378 L303.354472,138.356378 C302.986341,139.059205 302.615483,139.684395 302.245989,140.237395 L299.418198,139.569981 L298.638305,141.711153 L300.724381,142.205584 C298.908268,144.184671 297.475284,144.557878 297.475284,144.557878 L296.771745,146.492016 C299.607717,146.319033 302.352337,145.010084 304.505222,143.093653 L306.536759,143.573102 L307.313924,141.431929 L306.285885,141.189481 C307.022146,140.25374 307.634335,139.268964 308.13472,138.356378 L309.4,138.356378 L307.484355,143.615326 C306.259979,146.972826 312.928603,146.752171 312.928603,146.752171 L313.719402,144.586481 C312.458213,144.586481 312.137803,143.899998 312.358681,143.291153" id="Fill-40" fill="#FEFEFE"></path>
                    <g id="Group-44" transform="translate(252.237856, 134.536092)">
                        <mask id="mask-6" fill="white">
                            <use xlink:href="#path-5"></use>
                        </mask>
                        <g id="Clip-43"></g>
                        <polygon id="Fill-42" fill="#FEFEFE" mask="url(#mask-6)" points="17.8765741 0.180973563 12.6054846 0.180973563 11.2529443 1.72964598 7.14351244 1.72964598 6.10183827 4.58862874 8.75510783 4.58862874 4.20391883 9.79581839 3.15951776 12.6602494 15.1142287 12.6602494 13.8843987 16.0340943 1.93105122 16.0340943 0.890740495 18.8958011 12.8427245 18.8958011 11.6728863 22.1021115 16.9453392 22.1021115 18.1151775 18.8958011 28.2346876 18.8958011 29.2777252 16.0340943 19.1568516 16.0340943 20.3866816 12.6602494 30.5089186 12.6602494 31.5519563 9.79581839 21.4283558 9.79581839 22.9717788 5.55978391 17.6993259 5.55978391 16.1572663 9.79581839 9.47637175 9.79581839 14.0248339 4.58862874 33.4512391 4.58862874 34.4915499 1.72964598 16.5253973 1.72964598"></polygon>
                    </g>
                    <polygon id="Fill-45" fill="#FEFEFE" points="330.592206 137.486424 331.636607 134.623355 318.863828 135.815166 317.82079 138.678234 321.908407 138.298217 321.380752 139.74201 317.434934 139.74201 316.387806 142.607803 320.337715 142.607803 315.451118 156.028269 319.803243 156.028269 324.693931 142.607803 328.728373 142.607803 329.770047 139.74201 325.736968 139.74201 326.417329 137.877338"></polygon>
                    <polygon id="Fill-47" fill="#FEFEFE" points="342.662128 146.611197 340.522879 147.0348 344.962265 134.847007 340.604686 134.847007 335.827164 147.965093 326.687973 149.776645 325.646299 152.639714 334.784127 150.828162 332.890298 156.028541 337.243787 156.028541 339.475751 149.899231 341.619091 149.471541"></polygon>
                    <polygon id="Fill-49" fill="#FEFEFE" points="338.286824 137.749712 332.683053 135.735212 331.638652 138.595557 337.24515 140.610057"></polygon>
                    <polygon id="Fill-51" fill="#FEFEFE" points="334.966147 146.869172 336.011911 144.006103 330.40405 141.992966 329.362376 144.854672"></polygon>
                    <path d="M363.543878,149.239581 L361.182386,146.255288 L362.076808,143.804926 L368.969037,143.804926 L368.075979,146.255288 L363.543878,149.239581 Z M375.359517,139.167081 L376.402555,136.308098 L370.891499,136.308098 L371.423243,134.84796 L366.153517,134.84796 L365.620409,136.308098 L360.110716,136.308098 L359.067679,139.167081 L364.577371,139.167081 L363.92837,140.944581 L358.420041,140.944581 L357.37973,143.804926 L356.26443,146.869581 L360.23888,151.413443 L353.232122,156.028133 L357.871935,156.028133 L362.012726,153.442926 L364.269232,156.028133 L368.910409,156.028133 L365.265913,151.413443 L372.554905,146.869581 L373.967437,142.993133 L373.966074,142.993133 L374.709153,140.944581 L369.198096,140.944581 L369.848461,139.167081 L375.359517,139.167081 Z" id="Fill-53" fill="#FEFEFE"></path>
                    <path d="M356.649467,134.847416 L352.295978,134.847416 L351.76287,136.307553 L348.648755,136.307553 L347.605718,139.167898 L350.721196,139.167898 L348.441511,145.427967 L345.105154,146.039536 L344.062117,148.898519 L347.399837,148.284226 L346.074566,151.923674 C345.364209,153.868709 343.809879,154.784019 342.031943,154.784019 L341.592913,155.986726 C341.592913,155.986726 348.591491,156.961967 350.428055,151.923674 L352.065556,147.427484 L354.646563,146.954847 L355.688237,144.091778 L353.10723,144.565778 L355.076049,139.167898 L357.482534,139.167898 L358.526935,136.307553 L356.113632,136.307553 L356.649467,134.847416 Z" id="Fill-55" fill="#FEFEFE"></path>
                    <polygon id="Fill-57" fill="#FEFEFE" points="316.283911 143.575826 311.749084 156.029222 314.16375 156.029222 318.698578 143.575826"></polygon>
                    <polygon id="Fill-59" fill="#FEFEFE" points="321.086657 156.028678 323.50405 156.028678 328.040241 143.575281 325.624211 143.575281"></polygon>
                    <path d="M310.835574,147.467802 L306.079868,147.467802 L299.467145,147.467802 C299.784829,147.029216 299.956623,146.758164 299.956623,146.758164 L294.226052,146.749991 C294.061075,146.99925 293.890644,147.23625 293.720213,147.467802 L285.729045,147.467802 L284.879617,149.801026 L291.846835,149.801026 C287.763309,154.331267 284.199256,154.987784 284.199256,154.987784 L283.606156,156.611371 C286.66846,156.454733 290.811978,155.224784 293.462521,153.445922 C295.097295,152.346733 296.498919,150.998284 297.576043,149.801026 L305.23044,149.801026 L303.999246,153.170784 C303.777004,153.783716 302.954845,154.470198 301.695019,154.470198 L300.906946,156.634526 C300.906946,156.634526 307.414683,156.856543 308.639059,153.496319 L309.986146,149.801026 L310.835574,147.467802 Z" id="Fill-61" fill="#FEFEFE"></path>
                    <path d="M202.881453,0.327168966 L222.729163,0.327168966 C226.78133,0.327168966 230.345383,2.48468621 232.164222,7.37723793 C233.980335,12.2697897 250.257176,57.3610828 251.668344,61.2021172 C253.345385,65.7650483 251.845593,69.3936 247.279406,69.3936 L233.67765,69.3936 C233.67765,69.3936 213.703138,14.5444448 211.803855,9.15201379 C210.336785,4.97999655 207.49536,1.38004828 202.881453,0.327168966" id="Fill-63" fill="#FEFEFE"></path>
                    <path d="M231.841358,0.327168966 L251.689069,0.327168966 C255.742599,0.327168966 259.306652,2.48468621 261.122765,7.37723793 C262.940241,12.2697897 279.217081,57.3610828 280.629613,61.2021172 C282.305291,65.7650483 280.805498,69.3936 276.240675,69.3936 L262.637555,69.3936 C262.637555,69.3936 242.664407,14.5444448 240.765124,9.15201379 C239.298054,4.97999655 236.455266,1.38004828 231.841358,0.327168966" id="Fill-65" fill="#FEFEFE"></path>
                    <path d="M223.397116,61.2025259 C222.314539,58.2550086 206.064967,14.0095603 203.688477,8.14585345 C201.313351,2.28214655 195.862287,0.327577586 190.133079,0.327577586 L172.896371,0.327577586 L166.511344,0.327577586 L153.04866,0.327577586 C148.995129,0.327577586 145.431077,2.48509483 143.614964,7.37628448 C141.797488,12.2688362 125.520647,57.3614914 124.109479,61.2025259 C122.431074,65.7654569 123.930867,69.3940086 128.495691,69.3940086 L135.705603,69.3940086 L157.387151,8.88273276 L179.937215,8.88273276 L184.660199,23.9690086 L170.069943,23.9908017 L167.172616,35.3422845 L188.375594,35.3095948 L194.553377,55.5472155 L162.138767,55.5472155 C162.138767,55.5472155 160.764411,60.5432845 160.242211,62.6490431 C158.91694,67.978819 161.402505,69.2550776 165.510573,69.2550776 L219.621729,69.2550776 C223.536188,69.2550776 224.933722,65.3895259 223.397116,61.2025259" id="Fill-67" fill="#FEFEFE"></path>
                </g>
            </g>
        </g>
    </g>
</svg>