<svg xmlns="http://www.w3.org/2000/svg" width="60" height="60" viewBox="0 0 60 60">
    <path fill="#2D2E3D" fill-rule="nonzero" d="M49.953 6.33H9.343c-2.748 0-4.997 2.244-4.997 4.987v30.549c0 2.743 2.249 4.987 4.998 4.987h15.494l7.997 8.292c.562.748 1.5 1.185 2.437 1.185a3.152 3.152 0 0 0 2.624-1.434c.125-.187.25-.437.312-.686l2.062-7.357h9.683c2.75 0 4.999-2.244 4.999-4.987V11.317c0-2.743-2.25-4.987-4.999-4.987zM16.966 31.517c-2.749 0-4.998-2.245-4.998-4.988 0-2.743 2.249-4.987 4.998-4.987s4.998 2.244 4.998 4.987-2.25 4.988-4.998 4.988zm12.495 0c-2.749 0-4.998-2.245-4.998-4.988 0-2.743 2.25-4.987 4.998-4.987 2.75 0 4.998 2.244 4.998 4.987s-2.249 4.988-4.998 4.988zm12.496 0c-2.75 0-4.999-2.245-4.999-4.988 0-2.743 2.25-4.987 4.999-4.987 2.748 0 4.998 2.244 4.998 4.987s-2.25 4.988-4.998 4.988z"/>
</svg>
