<svg xmlns="http://www.w3.org/2000/svg" width="85" height="85" viewBox="0 0 85 85">
    <g fill="none" fill-rule="evenodd">
        <circle cx="42.5" cy="42.5" r="42.5" fill="#E0E2E6"/>
        <path fill="#2D2E3D" fill-rule="nonzero" d="M49.028 38.034c2.185 3.842.927 8.745-2.914 10.997-3.84 2.187-8.74.928-10.992-2.915-1.192-2.12-1.39-4.505-.662-6.625l7.747 2.849-4.171-7.221c3.84-2.253 8.807-.928 10.992 2.915z"/>
        <path fill="#2D2E3D" fill-rule="nonzero" d="M42.075 19.683c-15.496 0-28.011 22.392-28.011 22.392s12.515 22.392 28.011 22.392c15.496 0 28.011-22.392 28.011-22.392S57.571 19.682 42.075 19.682zm0 38.226c-8.741 0-15.827-7.089-15.827-15.834s7.086-15.834 15.827-15.834 15.827 7.089 15.827 15.834-7.086 15.834-15.827 15.834z"/>
    </g>
</svg>
