<svg xmlns="http://www.w3.org/2000/svg" width="60" height="60" viewBox="0 0 60 60">
    <g fill="none" fill-rule="evenodd">
        <path stroke="#2D2E3D" stroke-linecap="round" stroke-linejoin="round" stroke-width="4" d="M34.672 2.307c-2.673 0-4.86 2.17-4.86 4.822 0-2.652-2.187-4.822-4.86-4.822-2.672 0-4.86 2.17-4.86 4.822 0 .904.183 1.688.608 2.411l9.112 11.453L38.924 9.54c.425-.723.607-1.507.607-2.41 0-2.653-2.186-4.823-4.86-4.823z"/>
        <path fill="#2D2E3D" fill-rule="nonzero" d="M59.567 27.252c-.31-1.352-1.423-1.659-1.423-1.659l-5.072.553-4.577-10.69c-.433-1.23-1.918-3.195-4.949-3.503h-1.36v3.81h1.051c1.175.123 1.547.798 1.547.921l4.515 10.568-38.598-.061 4.454-10.322.061-.123c.062-.123.372-.799 1.547-.983h1.36v-3.81H16.516c-3.03.308-4.515 2.274-4.948 3.503l-4.515 10.69-4.887-.491s-1.113.307-1.423 1.659C.433 28.665.062 31 3.155 31.799l1.67.184C2.784 35.853.619 42.735 6.309 48.572c.124.123 1.547 1.229 2.289 1.413v3.38a2.342 2.342 0 0 0 2.35 2.334h3.093a2.342 2.342 0 0 0 2.35-2.335V50.17h27.403v3.134a2.342 2.342 0 0 0 2.35 2.335H49.3a2.342 2.342 0 0 0 2.35-2.335v-3.38a4.31 4.31 0 0 0 2.165-1.412c5.815-5.776 3.96-12.657 1.98-16.65l1.422-.124c3.031-.798 2.66-3.072 2.351-4.485zm-46.33 13.333a3.38 3.38 0 0 1-3.402-3.38c0-1.904 1.546-3.379 3.402-3.379a3.38 3.38 0 0 1 3.402 3.38 3.38 3.38 0 0 1-3.402 3.379zm33.155 0a3.38 3.38 0 0 1-3.402-3.38c0-1.904 1.546-3.379 3.402-3.379a3.38 3.38 0 0 1 3.402 3.38c.062 1.843-1.485 3.379-3.402 3.379z"/>
    </g>
</svg>
