<svg xmlns="http://www.w3.org/2000/svg" width="60" height="60" viewBox="0 0 60 60">
    <g fill="#2D2E3D" fill-rule="nonzero">
        <path d="M53.302 11.506C50.072 6.47 45.032 2.885 39.11 1.41a2.62 2.62 0 0 0-3.18 1.905 2.622 2.622 0 0 0 1.913 3.175c4.614 1.148 8.534 3.931 11.036 7.834 2.573 4.014 3.464 8.784 2.507 13.431a2.621 2.621 0 0 0 2.044 3.093l.075.013a2.621 2.621 0 0 0 3.024-2.048c1.233-5.991.087-12.138-3.227-17.307z"/>
        <path d="M35.294 15.103a.563.563 0 0 0 .054.008c2.184.33 4.244 1.849 5.78 4.247 1.396 2.178 1.751 4.26 1.12 6.556a2.618 2.618 0 0 0 2.079 3.274 2.621 2.621 0 0 0 2.981-1.883c1.026-3.721.434-7.344-1.758-10.763-2.358-3.682-5.692-6.03-9.4-6.603a2.62 2.62 0 0 0-2.995 2.184 2.624 2.624 0 0 0 2.14 2.98zM42.55 38.42a5.794 5.794 0 0 0-3.764-2.393 5.824 5.824 0 0 0-4.375.968l-2.643 1.842a.585.585 0 0 1-.448.1.57.57 0 0 1-.375-.236L19.89 22.955a.591.591 0 0 1 .152-.82l2.64-1.843a5.793 5.793 0 0 0 2.404-3.756 5.757 5.757 0 0 0-.963-4.356l-3.685-5.25a5.805 5.805 0 0 0-3.767-2.392 5.82 5.82 0 0 0-4.372.967l-6.601 4.61c-1.559 1.088-2.628 3.457-2.384 5.278 1.02 7.738 4.624 16.475 9.887 23.965 5.26 7.494 12.26 13.858 19.198 17.456.398.207.85.355 1.341.442 1.278.225 3.154.044 4.46-.868l6.6-4.608c2.639-1.843 3.284-5.481 1.437-8.111L42.55 38.42z"/>
    </g>
</svg>
