<svg xmlns="http://www.w3.org/2000/svg" width="340" height="243" viewBox="0 0 340 243">
    <path fill="#86D5FF" fill-rule="nonzero" d="M59.625.006c21.17 0 41.792 7.597 57.805 21.705l65.68 58.604 21.167 3.8 72.736 7.053c20.083 1.899 39.354 9.496 55.366 21.705 1.9 1.357 2.985 3.795 2.714 6.237l-7.331 56.707h4.887c3.8 0 6.785 2.984 6.785 6.783v24.964c0 3.799-2.985 6.783-6.785 6.783h-44.51c-1.085 0-2.169-.273-3.254-.816-9.77 17.364-28.228 29.304-49.668 29.304-20.626 0-38.54-11.128-48.581-27.407-1.086 1.085-2.712 1.632-4.612 1.632H6.974c-3.8 0-6.785-2.984-6.785-6.783 0-3.798 2.985-6.783 6.785-6.783h169.082l2.168-18.181c.271-31.202 25.782-56.431 56.993-56.431 29.854 0 54.552 23.33 56.723 52.631 0 .272-.001.545.27.816l2.173 18.452h31.481v-11.398h-25.782c-3.8 0-6.785-2.985-6.785-6.783 0-3.799 2.985-6.783 6.785-6.783h13.84l7.055-54.264c-13.298-9.767-29.037-15.462-45.321-17.09l-94.172-8.955c-.272 0-.816 0-1.087-.27-.543 0-1.086-.275-1.357-.546-.542-.542-1.086-.81-1.357-1.081l-69.206-61.863c-13.57-11.667-30.94-18.176-48.581-18.176L7.514 15.469C3.714 15.74.73 12.755.46 8.956c0-3.798 2.715-6.782 6.515-7.053L59.625.006zm8.953 24.96c13.57 0 26.6 5.968 35.828 16.278l40.163 45.584c1.629 1.899 2.173 4.881 1.087 7.323s-3.525 4.07-6.239 4.07H6.974c-3.8 0-6.785-2.985-6.785-6.783 0-3.798 2.985-6.783 6.785-6.783H124.49L94.361 50.2c-6.513-7.326-15.737-11.398-25.507-11.669l-61.61 2.713c-3.8.272-6.784-2.714-7.055-6.513-.272-3.798 2.715-6.781 6.514-7.053l61.605-2.713h.27zm-45.32 83.292c3.799 0 6.784 2.984 6.784 6.783 0 3.798-2.985 6.782-6.785 6.782H6.974c-3.8 0-6.785-2.984-6.785-6.782 0-3.799 2.985-6.783 6.785-6.783h16.283zm211.959 33.914c-23.883 0-43.424 19.535-43.424 43.411s19.541 43.411 43.424 43.411 43.423-19.535 43.423-43.41c0-23.877-19.54-43.412-43.423-43.412zm0 11.67c17.64 0 31.756 14.377 31.756 31.741 0 17.636-14.387 31.748-31.756 31.748-17.64 0-31.751-14.384-31.751-31.748s14.11-31.742 31.75-31.742zm0 13.835c-10.042 0-18.182 8.143-18.182 18.182 0 10.038 8.14 18.176 18.182 18.176 10.042 0 18.187-8.138 18.187-18.176 0-10.04-8.145-18.182-18.187-18.182zm-92.005 11.399c3.8 0 6.785 2.984 6.785 6.783 0 3.798-2.985 6.783-6.785 6.783H6.974c-3.8 0-6.785-2.985-6.785-6.783 0-3.799 2.985-6.783 6.785-6.783h136.238z"/>
</svg>
