<svg xmlns="http://www.w3.org/2000/svg" width="80" height="80" viewBox="0 0 80 80">
    <path fill="#FFF" fill-rule="nonzero" d="M41 74C22.252 74 7 58.748 7 40 7 21.252 22.252 6 41 6c18.748 0 34 15.252 34 34 0 18.748-15.252 34-34 34zm0-62.333c-15.623 0-28.333 12.71-28.333 28.333 0 15.623 12.71 28.333 28.333 28.333 15.623 0 28.333-12.71 28.333-28.333 0-15.623-12.71-28.333-28.333-28.333zm14.167 33.056a2.833 2.833 0 0 1-2.834-2.833v-7.557h-7.556a2.834 2.834 0 0 1 0-5.666h10.39A2.833 2.833 0 0 1 58 31.5v10.39a2.833 2.833 0 0 1-2.833 2.833zm-28.334 6.61c-.725 0-1.45-.277-2.003-.83a2.83 2.83 0 0 1 0-4.006l8.5-8.5a2.83 2.83 0 0 1 4.007 0L41 41.66l12.163-12.163a2.83 2.83 0 0 1 4.007 0 2.83 2.83 0 0 1 0 4.006L43.003 47.67a2.83 2.83 0 0 1-4.006 0l-3.664-3.664-6.496 6.497a2.826 2.826 0 0 1-2.004.83z"/>
</svg>
